PathFileType	4	(X/Y/Z)	walk-thru1-2-TP.trc
DataRate	CameraRate	NumFrames	NumMarkers	Units	OrigDataRate	OrigDataStartFrame	OrigNumFrames
120.00	120.00	       4	60	mm	120.00	1	       503
Frame#	Time	Top.Head			Front.Head			Rear.Head			Jaw			C7			R.Clavicle			L.Clavicle			R.Shoulder			L.Shoulder			R.Scapula			L.Scapula			R.Scap.Inf			R.Biceps.Lateral			R.Elbow			R.Elbow.Medial			R.Forearm			R.Ulna			R.Radius			R.Wrist			R.Thumb.M1			R.Thumb.M2			R.Thumb.M3			R.Finger3.M1			R.Finger3.M2			R.Finger3.M3			L.Biceps.Lateral			L.Elbow			L.Elbow.Medial			L.Forearm			L.Ulna			L.Radius			L.Wrist			L.Thumb.M1			L.Thumb.M2			L.Thumb.M3			L.Finger3.M1			L.Finger3.M2			L.Finger3.M3			V.Sacral			R.ASIS			L.ASIS			R.Thigh			R.Thigh.Front			R.Knee			R.Knee.Medial			R.Shank			R.Ankle			R.Ankle.Medial			R.Heel			R.Toe			R.MedFoot			L.Thigh			L.Knee			L.Knee.Medial			L.Shank			L.Ankle			L.Ankle.Medial			L.Heel			L.Toe			L.MedFoot			V_mid_ASIS			V_R_Knee_JC			V_L_Knee_JC			V_R_Elbow_JC			V_L_Elbow_JC			V_R_Ankle_JC			V_L_Ankle_JC			V_R_Wrist_JC			V_L_Wrist_JC			V_R_ScaTrpz_1stMC_JC			V_R_1stMC_1stPP_JC			V_R_1stPP_1stDP_JC			V_R_LunCap_3rdMC_JC			V_R_3rdMC_3rdPP_JC			V_R_3rdPP_3rdMP_JC			V_R_3rdMP_3rdDP_JC			V_L_ScaTrpz_1stMC_JC			V_L_1stMC_1stPP_JC			V_L_1stPP_1stDP_JC			V_L_LunCap_3rdMC_JC			V_L_3rdMC_3rdPP_JC			V_L_3rdPP_3rdMP_JC			V_L_3rdMP_3rdPP_JC			V_ROOT_JC			V_R_Hip_JC			V_L_Hip_JC			V_R_GlenHum_JC			V_L_GlenHum_JC			V_ForeHead_Ctr			V_Vertex			V_Sagit_Lambdoid_Suture			V_R_FrontoTemp			V_L_FrontoTemporal			V_R_ParietalOccip			V_L_ParietalOcciptal			V_R_Temporal			V_L_Temporal			V_mid_FrontRearHead			V_mid_RLGlenHumCtrs			V_C7_vert			V_C1_vert			V_Mid_Hip			
		X1	Y1	Z1	X2	Y2	Z2	X3	Y3	Z3	X4	Y4	Z4	X5	Y5	Z5	X6	Y6	Z6	X7	Y7	Z7	X8	Y8	Z8	X9	Y9	Z9	X10	Y10	Z10	X11	Y11	Z11	X12	Y12	Z12	X13	Y13	Z13	X14	Y14	Z14	X15	Y15	Z15	X16	Y16	Z16	X17	Y17	Z17	X18	Y18	Z18	X19	Y19	Z19	X20	Y20	Z20	X21	Y21	Z21	X22	Y22	Z22	X23	Y23	Z23	X24	Y24	Z24	X25	Y25	Z25	X26	Y26	Z26	X27	Y27	Z27	X28	Y28	Z28	X29	Y29	Z29	X30	Y30	Z30	X31	Y31	Z31	X32	Y32	Z32	X33	Y33	Z33	X34	Y34	Z34	X35	Y35	Z35	X36	Y36	Z36	X37	Y37	Z37	X38	Y38	Z38	X39	Y39	Z39	X40	Y40	Z40	X41	Y41	Z41	X42	Y42	Z42	X43	Y43	Z43	X44	Y44	Z44	X45	Y45	Z45	X46	Y46	Z46	X47	Y47	Z47	X48	Y48	Z48	X49	Y49	Z49	X50	Y50	Z50	X51	Y51	Z51	X52	Y52	Z52	X53	Y53	Z53	X54	Y54	Z54	X55	Y55	Z55	X56	Y56	Z56	X57	Y57	Z57	X58	Y58	Z58	X59	Y59	Z59	X60	Y60	Z60	

1	0.000	-1543.86523	-43.47628	1799.87402	-1444.42407	-30.97946	1683.01099	-1670.64771	-50.32611	1702.28235	-1491.69360	-38.99167	1520.46069	-1687.70935	-46.60570	1566.73682	-1589.75757	-160.39944	1471.42212	-1585.47961	65.83276	1472.35400	-1627.67395	-250.20909	1467.18115	-1655.84290	158.67931	1483.27332	-1737.12195	-136.07359	1481.76831	-1740.67993	31.32262	1486.66064	-1785.88489	-147.65065	1395.92126	-1669.54468	-313.41632	1289.10400	-1697.00684	-335.01852	1134.99878	-1719.06262	-247.41307	1116.38770	-1601.84619	-278.00583	1027.33752	-1622.87244	-325.05887	925.63348	-1562.14758	-261.40646	901.70007	-1558.66931	-301.69632	855.00940	-1545.05847	-255.45999	872.76959	-1507.01709	-222.66208	836.68524	-1468.92993	-219.31413	813.29211	-1511.49475	-300.99255	788.19495	-1489.12732	-259.96033	738.96295	-1501.01733	-216.13008	713.40662	-1690.90906	218.31754	1335.36230	-1716.64673	261.04163	1160.65527	-1755.13770	190.40137	1146.21606	-1652.19995	243.64838	1053.82129	-1709.52051	261.23676	967.72998	-1636.35266	216.19208	913.11005	-1648.95227	248.00215	854.38470	-1627.86316	206.10785	849.21838	-1628.86450	168.76045	801.94458	-1624.42664	171.97667	740.71326	-1637.28210	265.97110	780.80823	-1643.23218	240.87648	725.77734	-1665.76563	219.91951	679.87891	-1783.36316	-36.21182	1090.28345	-1699.47156	-227.26459	1035.75159	-1671.21765	151.69560	1029.37756	-1631.73376	-182.30836	630.10822	-1554.70129	-94.06811	557.97845	-1607.98328	-150.65842	499.34213	-1613.42773	-40.10201	503.28885	-1609.55225	-107.78200	315.52124	-1719.62341	-135.41676	66.41380	-1688.12927	-38.29300	87.98484	-1776.48450	-72.87363	42.02106	-1535.96997	-96.68866	42.68948	-1606.57776	-57.34924	65.22086	-1549.69592	142.02129	662.08600	-1511.35876	125.44873	515.80225	-1512.20203	2.44004	513.73047	-1581.64136	73.91630	329.22855	-1762.67505	100.84500	141.75710	-1728.71692	7.46210	170.33781	-1821.59009	48.05932	157.51500	-1623.96948	31.21839	56.30136	-1663.82263	14.72163	96.87813																																																																																																																															
2	0.008	-1540.15430	-43.86475	1799.44238	-1439.45630	-31.69257	1683.86975	-1666.87061	-51.47942	1702.28284	-1486.57397	-40.43145	1520.20898	-1682.75977	-47.33597	1566.26306	-1584.87012	-160.56671	1471.04077	-1579.06592	65.28351	1472.22229	-1623.73816	-251.28471	1467.11475	-1650.32068	159.10716	1484.74670	-1733.14709	-137.49373	1481.92114	-1736.68848	29.35419	1487.24072	-1780.90564	-148.47092	1396.19458	-1663.85742	-314.70673	1288.84985	-1692.47168	-336.36685	1134.68665	-1713.19019	-247.20734	1115.02966	-1594.92651	-281.42410	1028.08850	-1615.15747	-324.62738	925.48260	-1552.28638	-262.24255	902.61761	-1550.32349	-301.46713	854.24750	-1536.84473	-255.95996	873.01440	-1499.76086	-224.25894	837.05579	-1459.34131	-217.20189	815.12909	-1500.38782	-300.97900	790.00464	-1480.75427	-260.85812	741.95142	-1492.20239	-216.84932	713.92126	-1687.24365	219.42133	1336.58496	-1713.74561	259.47345	1161.08337	-1751.40454	189.31863	1146.26086	-1649.53906	244.59370	1054.14197	-1704.74573	258.95786	966.28735	-1632.93970	218.47142	913.33844	-1646.39392	250.65906	854.77264	-1625.59521	207.35460	850.84314	-1624.56506	168.82877	802.48535	-1621.51538	171.84091	740.97943	-1633.35938	264.02652	780.78204	-1639.95190	242.20552	725.36768	-1661.69690	220.06697	681.12805	-1778.85974	-36.63385	1090.09167	-1695.01404	-229.36662	1035.48303	-1670.00647	151.40567	1029.60547	-1628.75378	-181.68225	629.83350	-1553.04663	-93.55434	557.72266	-1606.11401	-150.36208	499.17719	-1612.36279	-39.69392	502.91153	-1610.07813	-108.40147	316.21603	-1719.62341	-135.41676	66.41380	-1688.12927	-38.29300	87.98484	-1778.04297	-74.45724	42.86236	-1535.96997	-96.68866	42.68948	-1605.69983	-56.94442	65.12395	-1543.10632	142.09338	663.22192	-1504.00000	125.77393	517.43335	-1505.99060	2.67131	514.97107	-1568.03601	70.64742	328.33701	-1747.74597	99.78714	138.23946	-1713.40442	9.02152	164.24207	-1806.19263	45.60863	151.28386	-1605.08521	32.26901	56.49642	-1646.05688	14.35092	95.77020																																																																																																																															
3	0.017	-1535.17480	-42.37776	1799.09290	-1436.41748	-30.67405	1684.92102	-1661.67212	-51.62091	1702.37732	-1481.74756	-38.67209	1519.81018	-1678.17627	-48.05413	1566.29724	-1578.68481	-161.99414	1470.82117	-1575.51404	65.54444	1471.28882	-1617.93237	-250.99509	1467.33325	-1647.65833	158.31570	1484.22778	-1727.78455	-137.87953	1482.49634	-1731.43665	29.31204	1486.96997	-1775.76978	-148.12416	1395.14526	-1658.46863	-314.78641	1288.94543	-1686.10852	-336.93872	1134.49963	-1707.04614	-248.31902	1114.82996	-1588.34961	-281.56934	1028.31885	-1610.45007	-325.90674	926.05316	-1548.51904	-263.90601	905.02020	-1543.34521	-301.13129	855.29254	-1533.13171	-255.29155	872.81433	-1490.80786	-225.06052	837.26495	-1452.78638	-220.98181	815.40063	-1495.51868	-301.42706	791.48395	-1471.34363	-261.48593	742.44714	-1483.03040	-217.29021	714.98450	-1682.80969	219.16611	1336.28906	-1709.40210	258.80518	1160.54150	-1746.79858	188.43039	1145.39783	-1643.52905	241.35503	1052.78723	-1701.30542	258.90265	966.40839	-1629.54480	217.82304	912.94452	-1643.98071	249.24297	854.68164	-1622.93738	207.12398	850.60742	-1619.03992	167.96251	801.07300	-1619.23792	170.67168	740.17755	-1629.51208	265.55316	780.68591	-1637.16479	242.06862	725.21490	-1657.93567	219.68161	681.20923	-1774.23560	-37.73009	1090.73047	-1685.90552	-227.37828	1034.25854	-1668.29163	151.28816	1030.01746	-1625.78491	-181.07968	629.47083	-1551.54395	-92.56942	556.36987	-1606.33801	-150.37758	498.84244	-1609.68298	-39.54083	502.23346	-1609.03735	-107.63140	315.32300	-1719.62341	-135.41676	66.41380	-1680.34009	-42.50797	90.07675	-1776.66577	-71.93324	41.95992	-1535.45435	-96.56142	42.80957	-1606.20032	-57.12831	64.27789	-1537.64478	142.98866	664.59460	-1497.32959	124.49781	518.59583	-1499.63440	1.77576	515.93988	-1559.95911	71.06512	327.52457	-1733.35510	101.78166	134.45586	-1696.44910	5.67196	160.58257	-1789.77258	42.05086	145.54355	-1585.70972	31.68481	56.29915	-1626.83240	12.61286	94.92341																																																																																																																															
4	0.025	-1528.92505	-42.60104	1797.64600	-1431.50342	-32.88883	1684.82410	-1657.59277	-51.71344	1701.66174	-1478.21985	-39.30952	1519.54333	-1673.04700	-47.59452	1565.51660	-1575.23901	-161.09084	1470.63318	-1572.57861	65.11610	1472.14258	-1613.78198	-250.80586	1467.46448	-1643.16199	158.62074	1483.11279	-1723.89624	-138.77313	1481.71289	-1728.07959	28.82793	1487.28406	-1771.21033	-149.37173	1395.47314	-1653.72266	-314.34113	1288.80042	-1680.03174	-337.35339	1135.22070	-1702.40967	-249.37965	1114.70129	-1582.50513	-281.05420	1029.31555	-1602.43237	-325.57324	925.59680	-1541.52124	-261.45450	906.92712	-1535.59705	-302.75378	857.41040	-1524.98450	-255.12430	873.08948	-1485.42310	-223.20850	837.02179	-1445.41016	-219.52370	815.81622	-1487.63354	-301.61829	793.00256	-1466.68079	-260.78226	742.70007	-1475.65222	-214.71375	718.40002	-1678.04028	219.44485	1335.95496	-1705.36487	257.38077	1159.44373	-1743.84375	187.73782	1145.13074	-1639.69482	239.79962	1052.36182	-1698.16638	258.20105	965.92627	-1624.37781	214.50191	912.80841	-1639.88513	248.76439	854.29260	-1614.40173	202.15517	848.54846	-1616.13708	165.81087	800.51898	-1611.61816	171.71170	738.87500	-1625.89148	265.53415	780.99414	-1634.60339	242.36380	724.26642	-1653.11670	218.96582	679.65637	-1770.00513	-37.43460	1090.20972	-1674.67944	-225.08157	1032.29797	-1661.31079	151.57230	1029.24915	-1622.93848	-181.08229	629.38898	-1548.65601	-93.24632	556.33838	-1604.00745	-150.50323	498.74707	-1611.30017	-38.05938	502.27362	-1608.03137	-105.08473	315.64981	-1719.62341	-135.41676	66.41380	-1678.31995	-41.32656	89.78806	-1778.56177	-76.48042	44.73388	-1535.44519	-96.56857	42.57531	-1606.21326	-57.12945	64.40838	-1531.28491	143.09209	665.87012	-1489.42371	123.31146	519.29553	-1492.24890	1.53851	516.37482	-1545.27686	70.80852	327.44507	-1716.45337	98.70611	128.82515	-1681.72009	6.70077	159.47696	-1776.10474	47.30971	138.54710	-1567.74609	33.40081	54.37717	-1610.51331	14.74764	93.05350																																																																																																																															
